<?xml version="1.0" encoding="utf-8"?>
<!-- Generator: Adobe Illustrator 17.0.0, SVG Export Plug-In . SVG Version: 6.00 Build 0)  -->
<!DOCTYPE svg PUBLIC "-//W3C//DTD SVG 1.1//EN" "http://www.w3.org/Graphics/SVG/1.1/DTD/svg11.dtd">
<svg version="1.1" id="Layer_1" xmlns="http://www.w3.org/2000/svg" xmlns:xlink="http://www.w3.org/1999/xlink" x="0px" y="0px"
	 width="20px" height="20px" viewBox="0 0 20 20" enable-background="new 0 0 20 20" xml:space="preserve">
<g>
	<path fill="#FFFFFF" d="M14.048,9.704H5.953c-1.287,0-2.33,1.045-2.33,2.33v1.873c0,1.286,1.043,2.33,2.33,2.33h8.095
		c1.286,0,2.329-1.044,2.329-2.33v-1.873C16.377,10.748,15.334,9.704,14.048,9.704z M7.653,11.163H6.901v3.738H6.174v-3.738H5.423
		v-0.637h2.23V11.163z M9.779,14.901H9.134v-0.354c-0.119,0.131-0.243,0.231-0.374,0.299c-0.127,0.069-0.252,0.103-0.372,0.103
		c-0.151,0-0.262-0.048-0.339-0.144c-0.074-0.097-0.112-0.24-0.112-0.434v-2.698h0.645v2.476c0,0.077,0.014,0.132,0.04,0.166
		c0.028,0.035,0.072,0.051,0.132,0.051c0.046,0,0.107-0.022,0.18-0.067c0.073-0.046,0.138-0.104,0.2-0.174v-2.452h0.645V14.901z
		 M12.12,14.234c0,0.228-0.05,0.404-0.151,0.527c-0.1,0.121-0.247,0.181-0.438,0.181c-0.127,0-0.239-0.023-0.337-0.07
		c-0.1-0.047-0.192-0.119-0.277-0.219v0.247h-0.654v-4.375h0.654v1.409c0.087-0.097,0.18-0.173,0.277-0.224
		c0.099-0.052,0.197-0.076,0.298-0.076c0.204,0,0.358,0.068,0.467,0.206c0.108,0.138,0.161,0.339,0.161,0.604V14.234z
		 M14.358,13.365h-1.236v0.608c0,0.17,0.022,0.288,0.063,0.354c0.042,0.066,0.116,0.098,0.219,0.098
		c0.108,0,0.183-0.028,0.225-0.084c0.042-0.056,0.065-0.178,0.065-0.368v-0.147h0.663v0.166c0,0.331-0.081,0.58-0.245,0.749
		c-0.16,0.167-0.401,0.249-0.723,0.249c-0.29,0-0.519-0.089-0.685-0.266c-0.163-0.176-0.247-0.42-0.247-0.732v-1.45
		c0-0.279,0.091-0.509,0.274-0.685c0.181-0.176,0.417-0.264,0.707-0.264c0.295,0,0.522,0.082,0.681,0.245
		c0.158,0.163,0.237,0.397,0.237,0.703V13.365z"/>
	<path fill="#FFFFFF" d="M13.411,12.158c-0.103,0-0.176,0.029-0.221,0.089c-0.046,0.056-0.068,0.154-0.068,0.29v0.326h0.572v-0.326
		c0-0.136-0.024-0.234-0.068-0.29C13.582,12.187,13.509,12.158,13.411,12.158z"/>
	<path fill="#FFFFFF" d="M11.186,12.146c-0.046,0-0.092,0.01-0.136,0.031c-0.045,0.021-0.089,0.055-0.133,0.099v2.011
		c0.052,0.052,0.104,0.092,0.153,0.115c0.048,0.022,0.1,0.035,0.156,0.035c0.079,0,0.137-0.024,0.174-0.069
		c0.036-0.046,0.055-0.119,0.055-0.223v-1.667c0-0.109-0.023-0.191-0.068-0.248C11.341,12.175,11.274,12.146,11.186,12.146z"/>
	<polygon fill="#FFFFFF" points="7.013,8.583 7.831,8.583 7.831,6.583 8.781,3.763 7.951,3.763 7.444,5.69 7.393,5.69 6.862,3.763 
		6.039,3.763 7.013,6.673 	"/>
	<path fill="#FFFFFF" d="M9.89,8.673c0.329,0,0.589-0.087,0.778-0.26c0.187-0.174,0.281-0.412,0.281-0.716V5.86
		c0-0.271-0.096-0.493-0.286-0.665c-0.193-0.171-0.439-0.256-0.741-0.256c-0.329,0-0.592,0.08-0.788,0.243
		C8.938,5.346,8.841,5.564,8.841,5.84v1.844c0,0.301,0.095,0.541,0.286,0.72C9.317,8.583,9.572,8.673,9.89,8.673z M9.588,5.813
		c0-0.077,0.027-0.14,0.083-0.189c0.057-0.048,0.127-0.07,0.216-0.07c0.097,0,0.174,0.022,0.234,0.07
		c0.059,0.049,0.089,0.112,0.089,0.189V7.75c0,0.095-0.03,0.17-0.087,0.224C10.065,8.03,9.986,8.056,9.887,8.056
		c-0.095,0-0.17-0.025-0.221-0.08C9.614,7.923,9.588,7.848,9.588,7.75V5.813z"/>
	<path fill="#FFFFFF" d="M12.047,8.635c0.135,0,0.275-0.039,0.42-0.113c0.146-0.077,0.286-0.187,0.418-0.332v0.393h0.727V5.027
		h-0.727v2.7c-0.067,0.077-0.142,0.14-0.224,0.19c-0.082,0.05-0.149,0.075-0.202,0.075c-0.069,0-0.119-0.019-0.147-0.057
		c-0.031-0.037-0.048-0.098-0.048-0.181V5.027h-0.725v2.972c0,0.212,0.042,0.371,0.127,0.476
		C11.752,8.582,11.878,8.635,12.047,8.635z"/>
</g>
</svg>
