<?xml version="1.0" encoding="utf-8"?>
<!-- Generator: Adobe Illustrator 16.2.1, SVG Export Plug-In . SVG Version: 6.00 Build 0)  -->
<!DOCTYPE svg PUBLIC "-//W3C//DTD SVG 1.1//EN" "http://www.w3.org/Graphics/SVG/1.1/DTD/svg11.dtd">
<svg version="1.1" id="Layer_1" xmlns="http://www.w3.org/2000/svg" xmlns:xlink="http://www.w3.org/1999/xlink" x="0px" y="0px"
	 width="40px" height="40px" viewBox="0 0 40 40" enable-background="new 0 0 40 40" xml:space="preserve">
<path fill="#FFFFFF" d="M29.545,14.08c-0.702,0.312-1.457,0.522-2.249,0.617c0.808-0.485,1.43-1.252,1.722-2.167
	c-0.757,0.449-1.595,0.775-2.486,0.951c-0.716-0.762-1.733-1.237-2.86-1.237c-2.161,0-3.916,1.753-3.916,3.916
	c0,0.307,0.035,0.606,0.103,0.893c-3.257-0.164-6.142-1.723-8.073-4.093c-0.337,0.579-0.53,1.251-0.53,1.969
	c0,1.359,0.691,2.558,1.742,3.26c-0.642-0.02-1.247-0.196-1.774-0.49c0,0.017,0,0.033,0,0.049c0,1.897,1.351,3.48,3.142,3.841
	c-0.328,0.089-0.674,0.137-1.032,0.137c-0.252,0-0.498-0.024-0.736-0.07c0.498,1.556,1.945,2.688,3.658,2.72
	c-1.34,1.051-3.028,1.678-4.863,1.678c-0.316,0-0.628-0.02-0.935-0.055c1.733,1.11,3.792,1.759,6.004,1.759
	c7.203,0,11.144-5.968,11.144-11.143c0-0.17-0.004-0.339-0.013-0.507C28.356,15.555,29.02,14.865,29.545,14.08z"/>
</svg>
