<?xml version="1.0" encoding="utf-8"?>
<!-- Generator: Adobe Illustrator 16.2.1, SVG Export Plug-In . SVG Version: 6.00 Build 0)  -->
<!DOCTYPE svg PUBLIC "-//W3C//DTD SVG 1.1//EN" "http://www.w3.org/Graphics/SVG/1.1/DTD/svg11.dtd">
<svg version="1.1" id="Layer_1" xmlns="http://www.w3.org/2000/svg" xmlns:xlink="http://www.w3.org/1999/xlink" x="0px" y="0px"
	 width="40px" height="40px" viewBox="0 0 40 40" enable-background="new 0 0 40 40" xml:space="preserve">
<path fill="#FFFFFF" d="M25.855,10.455H14.145c-2.035,0-3.689,1.655-3.689,3.69v3.896v7.816c0,2.033,1.654,3.688,3.689,3.688h11.711
	c2.035,0,3.689-1.654,3.689-3.688v-7.816v-3.896C29.545,12.109,27.891,10.455,25.855,10.455z M26.914,12.655l0.421-0.002v0.42v2.815
	l-3.226,0.011l-0.011-3.234L26.914,12.655z M17.275,18.041c0.611-0.845,1.603-1.401,2.725-1.401c1.121,0,2.113,0.557,2.725,1.401
	c0.396,0.552,0.637,1.227,0.637,1.959c0,1.853-1.51,3.359-3.361,3.359c-1.853,0-3.361-1.506-3.361-3.359
	C16.639,19.268,16.878,18.593,17.275,18.041z M27.685,25.857c0,1.008-0.819,1.828-1.829,1.828H14.145
	c-1.009,0-1.831-0.82-1.831-1.828v-7.816h2.85C14.919,18.646,14.78,19.307,14.78,20c0,2.876,2.341,5.218,5.22,5.218
	c2.878,0,5.221-2.342,5.221-5.218c0-0.694-0.141-1.355-0.386-1.959h2.85V25.857z"/>
</svg>
