<?xml version="1.0" encoding="utf-8"?>
<!-- Generator: Adobe Illustrator 16.2.1, SVG Export Plug-In . SVG Version: 6.00 Build 0)  -->
<!DOCTYPE svg PUBLIC "-//W3C//DTD SVG 1.1//EN" "http://www.w3.org/Graphics/SVG/1.1/DTD/svg11.dtd">
<svg version="1.1" id="Layer_1" xmlns="http://www.w3.org/2000/svg" xmlns:xlink="http://www.w3.org/1999/xlink" x="0px" y="0px"
	 width="30px" height="30px" viewBox="0 0 30 30" enable-background="new 0 0 30 30" xml:space="preserve">
<g>
	<path fill="#FFFFFF" d="M21.059,14.557H8.942c-1.927,0-3.487,1.563-3.487,3.488v2.804c0,1.925,1.561,3.487,3.487,3.487h12.116
		c1.925,0,3.486-1.562,3.486-3.487v-2.804C24.545,16.12,22.983,14.557,21.059,14.557z M11.486,16.74h-1.125v5.596H9.273V16.74H8.148
		v-0.953h3.338V16.74z M14.67,22.336h-0.966v-0.529c-0.179,0.195-0.363,0.346-0.561,0.447c-0.19,0.104-0.377,0.154-0.557,0.154
		c-0.226,0-0.392-0.072-0.507-0.216c-0.111-0.146-0.168-0.359-0.168-0.649v-4.038h0.965v3.706c0,0.115,0.021,0.197,0.06,0.248
		c0.042,0.053,0.108,0.076,0.198,0.076c0.069,0,0.16-0.033,0.27-0.1c0.109-0.069,0.207-0.156,0.3-0.261v-3.67h0.966V22.336z
		 M18.173,21.338c0,0.342-0.075,0.604-0.227,0.789c-0.15,0.182-0.37,0.271-0.656,0.271c-0.19,0-0.357-0.034-0.504-0.105
		c-0.149-0.07-0.288-0.178-0.414-0.327v0.37h-0.979v-6.549h0.979v2.109c0.131-0.145,0.27-0.259,0.414-0.336
		c0.148-0.078,0.295-0.114,0.446-0.114c0.306,0,0.536,0.103,0.699,0.308c0.161,0.206,0.241,0.508,0.241,0.904V21.338z
		 M21.523,20.037h-1.85v0.91c0,0.254,0.032,0.431,0.095,0.529s0.174,0.146,0.328,0.146c0.161,0,0.273-0.042,0.337-0.125
		c0.062-0.084,0.097-0.267,0.097-0.551v-0.221h0.993v0.248c0,0.496-0.121,0.868-0.366,1.121c-0.239,0.25-0.601,0.373-1.082,0.373
		c-0.434,0-0.776-0.133-1.025-0.398c-0.244-0.264-0.369-0.629-0.369-1.096v-2.17c0-0.418,0.136-0.762,0.41-1.025
		c0.271-0.264,0.624-0.395,1.058-0.395c0.441,0,0.781,0.122,1.02,0.367c0.236,0.244,0.355,0.595,0.355,1.053V20.037z"/>
	<path fill="#FFFFFF" d="M20.106,18.23c-0.154,0-0.264,0.043-0.331,0.133c-0.069,0.084-0.102,0.23-0.102,0.434v0.488h0.856v-0.488
		c0-0.203-0.035-0.35-0.102-0.434C20.361,18.273,20.253,18.23,20.106,18.23z"/>
	<path fill="#FFFFFF" d="M16.775,18.213c-0.069,0-0.138,0.016-0.204,0.047c-0.067,0.031-0.133,0.082-0.199,0.148v3.01
		c0.078,0.078,0.155,0.138,0.229,0.172c0.072,0.033,0.15,0.053,0.233,0.053c0.118,0,0.205-0.035,0.261-0.104
		c0.054-0.068,0.083-0.178,0.083-0.334V18.71c0-0.163-0.035-0.286-0.103-0.371C17.007,18.256,16.906,18.213,16.775,18.213z"/>
	<polygon fill="#FFFFFF" points="10.529,12.879 11.753,12.879 11.753,9.886 13.175,5.664 11.934,5.664 11.174,8.549 11.098,8.549 
		10.304,5.664 9.071,5.664 10.529,10.021 	"/>
	<path fill="#FFFFFF" d="M14.836,13.014c0.493,0,0.881-0.13,1.164-0.389c0.28-0.261,0.421-0.616,0.421-1.072V8.804
		c0-0.405-0.144-0.738-0.429-0.996c-0.289-0.256-0.657-0.384-1.108-0.384c-0.493,0-0.887,0.12-1.18,0.364
		c-0.293,0.245-0.438,0.571-0.438,0.985v2.76c0,0.451,0.143,0.81,0.428,1.078C13.978,12.879,14.359,13.014,14.836,13.014z
		 M14.384,8.732c0-0.115,0.04-0.209,0.124-0.282c0.085-0.071,0.19-0.104,0.323-0.104c0.145,0,0.261,0.033,0.35,0.104
		c0.088,0.073,0.133,0.167,0.133,0.282v2.9c0,0.143-0.045,0.255-0.131,0.336c-0.086,0.083-0.203,0.122-0.352,0.122
		c-0.143,0-0.254-0.038-0.331-0.119s-0.116-0.193-0.116-0.339V8.732z"/>
	<path fill="#FFFFFF" d="M18.063,12.956c0.202,0,0.412-0.058,0.629-0.169c0.219-0.115,0.429-0.28,0.626-0.497v0.589h1.088V7.557
		h-1.088v4.041c-0.101,0.115-0.213,0.21-0.335,0.285s-0.224,0.112-0.303,0.112c-0.103,0-0.178-0.028-0.221-0.086
		c-0.046-0.056-0.071-0.146-0.071-0.271V7.557h-1.085v4.448c0,0.317,0.063,0.555,0.189,0.712
		C17.622,12.877,17.811,12.956,18.063,12.956z"/>
</g>
</svg>
