<?xml version="1.0" encoding="utf-8"?>
<!-- Generator: Adobe Illustrator 16.2.1, SVG Export Plug-In . SVG Version: 6.00 Build 0)  -->
<!DOCTYPE svg PUBLIC "-//W3C//DTD SVG 1.1//EN" "http://www.w3.org/Graphics/SVG/1.1/DTD/svg11.dtd">
<svg version="1.1" id="Layer_1" xmlns="http://www.w3.org/2000/svg" xmlns:xlink="http://www.w3.org/1999/xlink" x="0px" y="0px"
	 width="30px" height="30px" viewBox="0 0 30 30" enable-background="new 0 0 30 30" xml:space="preserve">
<path fill="#FFFFFF" d="M15.447,5.455c-5.211,0-7.837,3.734-7.837,6.849c0,1.887,0.714,3.565,2.246,4.19
	c0.251,0.104,0.475,0.004,0.549-0.274c0.051-0.193,0.171-0.678,0.225-0.881c0.072-0.274,0.044-0.371-0.158-0.61
	c-0.441-0.521-0.724-1.195-0.724-2.151c0-2.771,2.073-5.251,5.396-5.251c2.947,0,4.565,1.8,4.565,4.202
	c0,3.161-1.399,5.831-3.478,5.831c-1.146,0-2.005-0.949-1.73-2.113c0.33-1.389,0.967-2.888,0.967-3.892
	c0-0.896-0.482-1.646-1.478-1.646c-1.172,0-2.115,1.213-2.115,2.838c0,1.035,0.351,1.735,0.351,1.735s-1.199,5.085-1.411,5.978
	c-0.418,1.771-0.062,3.945-0.032,4.164c0.016,0.131,0.185,0.161,0.26,0.063c0.109-0.141,1.505-1.865,1.981-3.589
	c0.133-0.487,0.77-3.014,0.77-3.014c0.38,0.727,1.495,1.367,2.68,1.367c3.524,0,5.916-3.214,5.916-7.516
	C22.39,8.483,19.635,5.455,15.447,5.455z"/>
</svg>
