<?xml version="1.0" encoding="utf-8"?>
<!-- Generator: Adobe Illustrator 17.0.0, SVG Export Plug-In . SVG Version: 6.00 Build 0)  -->
<!DOCTYPE svg PUBLIC "-//W3C//DTD SVG 1.1//EN" "http://www.w3.org/Graphics/SVG/1.1/DTD/svg11.dtd">
<svg version="1.1" id="Layer_1" xmlns="http://www.w3.org/2000/svg" xmlns:xlink="http://www.w3.org/1999/xlink" x="0px" y="0px"
	 width="32px" height="32px" viewBox="0 0 32 32" enable-background="new 0 0 32 32" xml:space="preserve">
<path fill="#FFFFFF" d="M28,8.557c-0.883,0.392-1.832,0.656-2.827,0.775c1.015-0.61,1.797-1.574,2.165-2.724
	c-0.952,0.565-2.005,0.974-3.126,1.195c-0.9-0.958-2.179-1.555-3.596-1.555c-2.717,0-4.923,2.204-4.923,4.923
	c0,0.386,0.044,0.762,0.129,1.123c-4.095-0.206-7.721-2.166-10.15-5.145C5.247,7.876,5.004,8.722,5.004,9.624
	c0,1.708,0.869,3.215,2.19,4.098c-0.807-0.025-1.568-0.247-2.231-0.616c0,0.021,0,0.042,0,0.062c0,2.386,1.698,4.376,3.95,4.829
	c-0.412,0.112-0.847,0.172-1.298,0.172c-0.317,0-0.626-0.031-0.926-0.088c0.626,1.956,2.446,3.38,4.599,3.419
	c-1.684,1.321-3.807,2.109-6.114,2.109c-0.398,0-0.789-0.025-1.175-0.069c2.179,1.396,4.767,2.211,7.548,2.211
	c9.056,0,14.01-7.503,14.01-14.009c0-0.214-0.005-0.426-0.016-0.637C26.506,10.411,27.339,9.544,28,8.557z"/>
</svg>
