<?xml version="1.0" encoding="utf-8"?>
<!-- Generator: Adobe Illustrator 17.0.0, SVG Export Plug-In . SVG Version: 6.00 Build 0)  -->
<!DOCTYPE svg PUBLIC "-//W3C//DTD SVG 1.1//EN" "http://www.w3.org/Graphics/SVG/1.1/DTD/svg11.dtd">
<svg version="1.1" id="Layer_1" xmlns="http://www.w3.org/2000/svg" xmlns:xlink="http://www.w3.org/1999/xlink" x="0px" y="0px"
	 width="20px" height="20px" viewBox="0 0 20 20" enable-background="new 0 0 20 20" xml:space="preserve">
<path fill="#666666" d="M19.338,17.166l-4.662-4.528c-0.347-0.337-0.871-0.352-1.256-0.088l-0.468-0.453
	c1.115-1.251,1.797-2.89,1.797-4.69c0-3.918-3.204-7.094-7.156-7.094S0.438,3.488,0.438,7.406c0,3.918,3.204,7.094,7.156,7.094
	c1.681,0,3.223-0.578,4.444-1.54l0.49,0.475c-0.333,0.397-0.318,0.989,0.059,1.355l4.662,4.528c0.395,0.383,1.031,0.374,1.414-0.021
	l0.697-0.717C19.742,18.185,19.733,17.549,19.338,17.166z M7.584,13.738c-3.522,0-6.378-2.831-6.378-6.322
	c0-3.492,2.855-6.322,6.378-6.322c3.522,0,6.378,2.831,6.378,6.322C13.962,10.908,11.106,13.738,7.584,13.738z"/>
<path opacity="0.3" fill="#333333" d="M7.564,2.11c-1.911,0-3.579,1.021-4.503,2.544c0.796-0.482,1.726-0.765,2.724-0.765
	c2.91,0,5.268,2.359,5.268,5.268c0,0.998-0.283,1.929-0.765,2.724c1.523-0.923,2.544-2.592,2.544-4.503
	C12.832,4.469,10.474,2.11,7.564,2.11z"/>
<path opacity="0.7" fill="#FFFFFF" d="M13.094,13.758c0,0,0.344-0.542,0.999-0.542c0.437,0,4.435,3.997,4.435,3.997
	S14.374,13.219,13.094,13.758z"/>
</svg>
