<?xml version="1.0" encoding="utf-8"?>
<!-- Generator: Adobe Illustrator 17.0.0, SVG Export Plug-In . SVG Version: 6.00 Build 0)  -->
<!DOCTYPE svg PUBLIC "-//W3C//DTD SVG 1.1//EN" "http://www.w3.org/Graphics/SVG/1.1/DTD/svg11.dtd">
<svg version="1.1" id="Layer_1" xmlns="http://www.w3.org/2000/svg" xmlns:xlink="http://www.w3.org/1999/xlink" x="0px" y="0px"
	 width="188px" height="51px" viewBox="0 0 188 51" enable-background="new 0 0 188 51" xml:space="preserve">
<g>
	<path fill-rule="evenodd" clip-rule="evenodd" fill="#A80056" d="M38.831,25.588c-0.122-3.189-1.045-6.304-2.687-9.042
		l-11.187,8.243L38.831,25.588z"/>
	<path fill-rule="evenodd" clip-rule="evenodd" fill="#A80056" d="M36.033,16.367c-1.619-2.639-3.91-4.913-6.791-6.543
		l-5.674,12.678L36.033,16.367z"/>
	<path fill-rule="evenodd" clip-rule="evenodd" fill="#A80056" d="M36.721,34.988c1.52-2.933,2.199-6.089,2.117-9.189l-13.797,1.667
		L36.721,34.988z"/>
	<path fill="#A80056" d="M29.057,9.718c-2.899-1.597-6.037-2.356-9.13-2.355l1.305,13.833L29.057,9.718z"/>
	<path fill-rule="evenodd" clip-rule="evenodd" fill="#A80056" d="M32.887,40.07c1.375-1.296,2.579-2.817,3.551-4.553
		c0.062-0.115,0.124-0.226,0.184-0.341l-8.851-3.689C30.001,34.039,31.72,36.956,32.887,40.07z"/>
	<path fill-rule="evenodd" clip-rule="evenodd" fill="#A80056" d="M3.601,16.719c-0.067,0.11-0.13,0.223-0.194,0.338
		c-0.971,1.734-1.639,3.557-2.018,5.406c3.261-0.637,6.647-0.7,9.989-0.138L3.601,16.719z"/>
	<path fill="#A80056" d="M19.087,27.772c-5.666-3.164-11.872-4.471-17.906-4.115c-1.049,7.503,2.499,15.226,9.509,19.144
		c7.013,3.918,15.446,2.896,21.288-1.931C29.12,35.544,24.756,30.945,19.087,27.772z"/>
	<path fill-rule="evenodd" clip-rule="evenodd" fill="#A80056" d="M19.717,7.365c-3.193,0.038-6.33,0.882-9.107,2.449l7.946,11.396
		L19.717,7.365z"/>
	<path fill-rule="evenodd" clip-rule="evenodd" fill="#A80056" d="M10.425,9.919c-2.682,1.554-5.016,3.785-6.718,6.618l12.528,6.003
		L10.425,9.919z"/>
</g>
<path fill="#FFFFFF" d="M65.784,15.558h-0.049l-5.357,13.054h-6.628l0.195-13.054h-0.05L51.12,28.612H45l3.882-18.265h10.043
	l-0.314,10.878h0.051l4.308-10.878h10.042l-3.879,18.265H63.01L65.784,15.558z"/>
<path fill="#FFFFFF" d="M89.41,19.656h-1.646l0.795-3.744h1.645l0.435-2.048l6.573-2.123l-0.887,4.172h2.757l-0.795,3.744h-2.762
	l-0.823,3.896c-0.206,0.96,0.028,1.291,0.761,1.291c0.432,0,0.937,0,1.525-0.151l-0.796,3.742c-1.457,0.303-2.979,0.56-4.19,0.56
	c-2.379,0-4.425-0.74-3.822-3.571L89.41,19.656z"/>
<path fill="#FFFFFF" d="M101.247,10.347h6.122l-1.549,7.287h0.048c1.179-1.369,2.369-2.101,4.445-2.101
	c2.555,0,4.133,1.266,3.417,4.628l-1.794,8.451h-6.122l1.672-7.869c0.199-0.934-0.069-1.467-0.801-1.467
	c-0.682,0-1.301,0.407-1.517,1.416l-1.683,7.92h-6.12L101.247,10.347z"/>
<path fill="#FFFFFF" d="M139.556,27.147c-1.367,1.438-2.947,1.846-4.339,1.846c-3.085,0-4.783-2.38-3.826-6.884
	c1.021-4.805,3.855-6.576,6.61-6.576c1.418,0,2.67,0.405,3.441,1.544l1.43-6.73h6.122l-3.883,18.265h-5.766L139.556,27.147z
	 M140.657,20.288c0.004-0.735-0.384-1.165-1.067-1.165c-1.265,0-1.679,1.115-2.107,3.138c-0.369,1.721-0.516,3.137,0.799,3.137
	c0.68,0,1.025-0.304,1.284-0.682c0.258-0.379,0.497-1.139,0.774-2.455C140.576,21.149,140.647,20.818,140.657,20.288z"/>
<path fill="#FFFFFF" d="M149.754,15.911h6.122l-2.7,12.701h-6.123L149.754,15.911z M150.938,10.347h6.118l-0.825,3.896h-6.122
	L150.938,10.347z"/>
<path fill="#FFFFFF" d="M45.453,40.054l1.849-8.692h1.202l-0.793,3.727h4.14l0.792-3.727h1.203l-1.849,8.692h-1.202l0.833-3.923
	h-4.14l-0.832,3.923H45.453z"/>
<path fill="#FFFFFF" d="M55.581,36.466c0.21-0.996,0.951-1.813,1.903-1.813c1.105,0,1.394,0.79,1.152,1.813H55.581z M59.67,37.256
	l0.122-0.561c0.356-1.688-0.251-2.836-2.051-2.869c-1.911,0-3.119,1.485-3.496,3.26c-0.38,1.78,0.101,3.146,2.038,3.146
	c1.445,0,2.649-0.682,3.122-2.052h-1.206c-0.317,0.878-0.837,1.226-1.728,1.226c-1.167,0-1.366-1.094-1.058-2.149H59.67z"/>
<path fill="#FFFFFF" d="M64.757,37.117c-0.213,1.121-0.715,2.288-2.07,2.288c-0.674,0-1.114-0.375-0.957-1.121
	c0.189-0.877,1.171-1.131,1.88-1.167H64.757z M63.888,36.327c-1.44,0-3.05,0.493-3.409,2.188c-0.252,1.177,0.693,1.717,1.742,1.717
	c0.835,0,1.58-0.324,2.116-1.08h0.027c-0.044,0.277-0.076,0.544-0.11,0.821c-0.025,0.142,0.193,0.081,0.301,0.081h0.773
	c0.071-0.504,0.164-1.01,0.222-1.276l0.611-2.883c0.359-1.697-0.786-2.068-2.026-2.068c-1.191,0-2.322,0.465-2.667,1.799h1.202
	c0.147-0.631,0.761-0.972,1.34-0.972c1.214,0,1.14,0.618,0.916,1.674H63.888z"/>
<path fill="#FFFFFF" d="M67.262,40.054l1.844-8.692h1.145l-1.85,8.692H67.262z"/>
<path fill="#FFFFFF" d="M71.878,34.002l0.271-1.292l1.221-0.358l-0.352,1.65l1.404-0.036l-0.18,0.856l-1.396-0.013l-0.827,3.902
	c-0.094,0.432,0.201,0.637,0.609,0.637c0.18,0,0.427-0.023,0.616-0.07l-0.186,0.881c-0.268,0.011-0.533,0.074-0.798,0.074
	c-0.278,0-0.49-0.013-0.758-0.063c-0.172-0.034-0.453-0.129-0.59-0.396c-0.142-0.29-0.197-0.317-0.026-1.124l0.817-3.841
	l-1.039,0.013l0.184-0.856L71.878,34.002z"/>
<path fill="#FFFFFF" d="M74.478,40.054l1.85-8.692h1.144l-0.738,3.457h0.024c0.58-0.678,1.297-0.992,2.176-0.992
	c1.581,0,1.85,1.053,1.621,2.136l-0.87,4.092h-1.145l0.76-3.572c0.226-1.063,0.095-1.749-0.974-1.772
	c-0.455-0.014-1.23,0.337-1.554,0.844c-0.398,0.623-0.418,1.055-0.488,1.393l-0.662,3.106H74.478z"/>
<path fill="#FFFFFF" d="M86.005,35.939c0.1-0.756-0.149-1.286-0.972-1.286c-1.092,0-1.717,0.952-2.021,2.377
	c-0.302,1.424-0.084,2.376,1.011,2.376c0.754,0,1.332-0.497,1.575-1.364h1.144c-0.385,1.364-1.573,2.19-2.902,2.19
	c-1.94,0-2.417-1.37-2.037-3.156c0.373-1.771,1.579-3.25,3.494-3.25c1.278,0,2.071,0.803,1.85,2.115L86.005,35.939z"/>
<path fill="#FFFFFF" d="M91.893,37.117c-0.212,1.121-0.715,2.288-2.069,2.288c-0.677,0-1.116-0.375-0.959-1.121
	c0.187-0.877,1.171-1.131,1.88-1.167H91.893z M91.023,36.327c-1.437,0-3.048,0.493-3.407,2.188
	c-0.252,1.177,0.692,1.717,1.741,1.717c0.834,0,1.583-0.324,2.118-1.08h0.024c-0.041,0.277-0.074,0.544-0.11,0.821
	c-0.025,0.142,0.194,0.081,0.304,0.081h0.772c0.069-0.504,0.163-1.01,0.221-1.276l0.611-2.883c0.363-1.697-0.783-2.068-2.024-2.068
	c-1.188,0-2.326,0.465-2.669,1.799h1.204c0.146-0.631,0.759-0.972,1.335-0.972c1.216,0,1.145,0.618,0.92,1.674H91.023z"/>
<path fill="#FFFFFF" d="M95.56,40.054h-1.144l1.288-6.052h1.144l-0.253,1.181h0.025c0.346-0.834,1.207-1.255,2.039-1.255
	c0.144,0,0.261,0.011,0.394,0.011l-0.23,1.09c-0.146-0.061-0.326-0.061-0.482-0.061c-1.458,0.048-1.873,0.817-2.145,2.093
	L95.56,40.054z"/>
<path fill="#FFFFFF" d="M100.133,36.466c0.212-0.996,0.952-1.813,1.902-1.813c1.106,0,1.396,0.79,1.155,1.813H100.133z
	 M104.225,37.256l0.117-0.561c0.361-1.688-0.249-2.836-2.047-2.869c-1.914,0-3.12,1.485-3.494,3.26
	c-0.381,1.78,0.1,3.146,2.037,3.146c1.443,0,2.646-0.682,3.118-2.052h-1.202c-0.319,0.878-0.838,1.226-1.727,1.226
	c-1.168,0-1.368-1.094-1.06-2.149H104.225z"/>
<path fill="#FFFFFF" d="M124.066,20.26c0,0.758-0.198,1.856-0.435,2.899c-0.44,1.954-1.098,2.384-1.864,2.384
	c-0.675,0-1.031-0.284-1.031-1.398c0-0.569,0.133-1.458,0.435-2.717c0.384-1.596,0.972-2.349,1.848-2.349
	C123.668,19.079,124.066,19.401,124.066,20.26z M114.56,23.687c0,3.474,2.292,5.314,6.856,5.314c2.672,0,4.743-0.666,6.323-2.028
	c1.45-1.259,2.501-3.41,2.501-6.13c0-3.449-2.591-5.212-6.881-5.212c-2.897,0-5.026,0.839-6.461,2.185
	C115.286,19.326,114.56,21.608,114.56,23.687z"/>
<path fill="#FFFFFF" d="M78.539,20.715c0.033-0.334,0.182-0.806,0.329-1.094c0.326-0.64,0.759-0.862,1.467-0.862
	c0.694,0,1.122,0.302,1.146,1.001c0.007,0.201-0.061,0.542-0.166,0.955H78.539z M78.012,23.425h8.653
	c0.287-0.978,0.341-1.93,0.341-2.654c0-3.214-1.957-5.213-6.456-5.213c-2.676,0-4.889,0.836-6.285,2.221
	c-1.384,1.375-2.242,3.909-2.242,5.935c0,1.673,0.594,3.204,1.648,3.991c1.179,0.88,2.578,1.289,5.226,1.289
	c1.471,0,3.494-0.362,4.571-0.871c1.679-0.792,2.68-2.154,2.904-3.612h-5.649c-0.264,0.892-0.677,1.319-1.529,1.319
	c-0.857,0-1.348-0.535-1.348-1.4C77.845,24.158,77.895,23.717,78.012,23.425z"/>
<path fill-rule="evenodd" clip-rule="evenodd" fill="#FFFFFF" d="M177.331,19.887h2.758l0.844-3.976h-2.758l0.89-4.172l-6.574,2.123
	l-0.438,2.048h-1.643l-0.717,3.38v-0.227c0-2.638-2.541-3.435-6.012-3.435c-2.474,0-4.139,0.438-5.37,1.256
	c-1.307,0.871-1.967,2.492-1.967,3.468c0,1.929,1.114,2.869,3.924,3.368l0.965,0.173c1.757,0.311,2.206,0.524,2.206,1.141
	c0,0.764-0.579,1.115-1.386,1.115c-0.866,0-1.273-0.377-1.273-1.079c0-0.318,0.047-0.472,0.092-0.714h-5.342
	c-0.112,0.277-0.202,0.777-0.202,1.125c0,2.137,1.956,3.524,6.305,3.524c2.091,0,4.165-0.459,5.435-1.262
	c1.288-0.813,2.077-2.19,2.077-3.78c0-2.05-1.405-2.905-4.22-3.372l-0.288-0.046c-2.261-0.375-2.595-0.48-2.595-1.142
	c0-0.394,0.385-0.924,1.287-0.924c0.844,0,1.27,0.275,1.13,1.404h5.105v0.002h1.647l-1.177,5.536
	c-0.603,2.831,1.443,3.571,3.818,3.571c1.217,0,2.737-0.257,4.192-0.56l0.797-3.742c-0.591,0.151-1.095,0.151-1.525,0.151
	c-0.734,0-0.967-0.33-0.763-1.291L177.331,19.887z"/>
<g>
	<path fill="#FFFFFF" d="M180.809,27.37c-0.084,0.432,0.134,0.59,0.54,0.59c0.343,0,0.786-0.101,0.875-0.526
		c0.066-0.291-0.156-0.415-0.398-0.455c-0.475-0.112-1.286-0.226-1.14-0.906c0.142-0.66,0.795-0.905,1.36-0.905
		c0.515,0,0.978,0.232,0.85,0.819h-0.44c0.054-0.34-0.205-0.458-0.507-0.458c-0.296,0-0.728,0.11-0.804,0.472
		c-0.076,0.344,0.165,0.366,0.412,0.44c0.518,0.184,1.281,0.184,1.12,0.95c-0.146,0.685-0.818,0.931-1.432,0.931
		c-0.635,0-1.039-0.27-0.88-0.951H180.809z"/>
	<path fill="#FFFFFF" d="M186.485,25.529h-0.011l-1.548,2.731h-0.393l-0.388-2.731h-0.008l-0.58,2.731h-0.422l0.647-3.031h0.752
		l0.342,2.495h0.008l1.385-2.495h0.702l-0.647,3.031h-0.417L186.485,25.529z"/>
</g>
</svg>
